#!OML:ASF I:\Actors\actors\Patient Classification 1\Patient 1\Session 1\Subject1.ASF
:FULLY-SPECIFIED
:DEGREES
289
root -0.136473 17.5561 8.72888 10.8322 0.425877 -9.85674
lowerback -0.0276436 1.67342 7.97278
upperback -8.56909 2.86523 2.86812
thorax -8.85558 0.945235 -1.60857
lowerneck -10.977 -2.57085 -0.0552058
upperneck 26.7712 -4.70669 3.79241
head 10.4674 -1.7277 0.786665
rclavicle 2.44924e-014 -1.49089e-016
rhumerus -28.4838 2.47537 -86.8009
rradius 130.001
rwrist 19.1908
rhand 44.7109 -63.2056
rfingers 7.12502
rthumb 66.1657 -68.3139
lclavicle 2.44924e-014 -1.49089e-016
lhumerus -33.6092 0.822026 90.1676
lradius 118.954
lwrist -11.9724
lhand 61.9168 20.2338
lfingers 7.12502
lthumb 74.905 -19.1275
rfemur -2.9413 25.1923 27.0644
rtibia 0.954724
rfoot -14.9824 -30.7438
rtoes 7.5309
lfemur 2.82163 -43.9036 -7.61307
ltibia -4.69576
lfoot -23.9979 54.1078
ltoes 14.0642
290
root -0.145608 17.5546 8.73219 10.5612 1.32629 -9.91116
lowerback -0.0635227 1.78721 8.05231
upperback -8.55628 3.01205 2.75275
thorax -8.79859 1.01025 -1.7835
lowerneck -11.0886 -2.90083 -0.059848
upperneck 26.7148 -5.15504 3.73641
head 10.4779 -1.938 0.710812
rclavicle 2.59041e-015 4.41799e-014
rhumerus -28.2092 1.54531 -86.3378
rradius 129.943
rwrist 19.3933
rhand 46.1358 -64.0109
rfingers 7.12502
rthumb 67.2417 -66.9488
lclavicle 2.59041e-015 4.41799e-014
lhumerus -33.3175 0.260623 90.0868
lradius 119.129
lwrist -11.3116
lhand 62.2929 20.308
lfingers 7.12502
lthumb 74.9374 -20.4438
rfemur -2.59186 24.9901 27.3956
rtibia 1.01224
rfoot -15.6107 -31.2387
rtoes 8.5753
lfemur 2.70567 -43.9127 -7.34927
ltibia -4.70119
lfoot -22.521 53.5687
ltoes 12.6743
291
root -0.153736 17.5527 8.73728 10.2946 2.32088 -9.89809
lowerback -0.190883 1.84955 8.07193
upperback -8.50782 3.07409 2.64456
thorax -8.65658 1.04246 -1.90848
lowerneck -11.3659 -3.21244 -0.249739
upperneck 26.8237 -5.58965 3.83216
head 10.5923 -2.13626 0.718584
rclavicle 7.1314e-015 -5.36719e-015
rhumerus -27.8472 1.10446 -86.0351
rradius 130.104
rwrist 19.6968
rhand 44.9995 -62.6924
rfingers 7.12502
rthumb 66.3865 -67.3777
lclavicle 7.1314e-015 -5.36719e-015
lhumerus -32.8777 -0.151616 90.067
lradius 119.255
lwrist -10.9483
lhand 62.0798 20.0929
lfingers 7.12502
lthumb 74.9201 -19.8704
rfemur -2.20989 24.7072 27.647
rtibia 0.995909
rfoot -16.2256 -31.7225
rtoes 9.80054
lfemur 2.49298 -43.8954 -7.10524
ltibia -4.68029
lfoot -20.8444 52.9633
ltoes 10.9644
292
root -0.160511 17.5522 8.74114 10.0021 3.29566 -9.84339
lowerback -0.236949 1.86831 8.04005
upperback -8.51995 3.09124 2.56569
thorax -8.63761 1.05177 -1.97427
lowerneck -11.523 -3.47193 -0.539738
upperneck 27.0377 -5.94245 3.96764
head 10.7262 -2.30154 0.768815
rclavicle 4.61615e-014 2.39536e-014
rhumerus -27.464 0.78685 -85.7163
rradius 130.148
rwrist 19.7817
rhand 44.6194 -62.8765
rfingers 7.12502
rthumb 66.0954 -68.1172
lclavicle 4.61615e-014 2.39536e-014
lhumerus -32.641 -0.350454 90.045
lradius 119.37
lwrist -10.7389
lhand 61.1447 19.7274
lfingers 7.12502
lthumb 74.8101 -16.8019
rfemur -1.78421 24.387 27.8534
rtibia 0.940896
rfoot -16.7486 -32.2092
rtoes 10.7271
lfemur 2.26551 -43.6822 -6.91528
ltibia -4.64134
lfoot -19.1841 52.13
ltoes 9.29477
293
root -0.1664 17.5511 8.7431 9.74388 4.19253 -9.85757
lowerback -0.265492 1.89802 8.05032
upperback -8.58773 3.13263 2.50602
thorax -8.68899 1.06693 -2.04539
lowerneck -11.6161 -3.73181 -0.856655
upperneck 27.3445 -6.29065 4.08787
head 10.8849 -2.46798 0.819216
rclavicle -2.88486e-014 -2.68359e-015
rhumerus -27.136 0.599546 -85.4506
rradius 130.199
rwrist 19.97
rhand 44.4631 -62.7772
rfingers 7.12502
rthumb 65.9751 -68.2422
lclavicle -2.88486e-014 -2.68359e-015
lhumerus -32.6401 -0.428354 89.9258
lradius 119.492
lwrist -10.4168
lhand 60.9783 19.6209
lfingers 7.12502
lthumb 74.7847 -16.3031
rfemur -1.41545 24.0817 28.1065
rtibia 0.887646
rfoot -17.12 -32.6636
rtoes 11.3028
lfemur 2.00714 -43.3614 -6.6245
ltibia -4.61563
lfoot -17.7319 51.2004
ltoes 7.87478
